<svg width="200" height="200" viewBox="0 0 200 200" fill="none" xmlns="http://www.w3.org/2000/svg">
<g filter="url(#filter0_d_126_51)">
<path d="M102.246 113.118C102.229 113.018 102.236 112.915 102.267 112.819C102.299 112.722 102.353 112.635 102.426 112.564L110.932 104.273C111.584 103.637 111.815 102.703 111.533 101.837C111.251 100.97 110.516 100.35 109.614 100.219L97.8597 98.5109C97.7592 98.4963 97.6638 98.4575 97.5817 98.3978C97.4995 98.3382 97.4331 98.2594 97.3882 98.1684L92.1315 87.5169C91.7282 86.6997 90.9114 86.192 90 86.192C89.0887 86.192 88.272 86.6997 87.8687 87.5169L85.2209 92.8818C85.1182 93.09 85.1023 93.3304 85.1769 93.5503C85.2514 93.7701 85.4103 93.9514 85.6184 94.0541C85.8266 94.1569 86.0671 94.1727 86.2869 94.0982C86.5068 94.0236 86.688 93.8648 86.7908 93.6566L89.4386 88.2916C89.594 87.9766 89.8831 87.9425 90 87.9425C90.1171 87.9425 90.4062 87.9766 90.5616 88.2916L95.8185 98.9432C95.989 99.2887 96.2411 99.5876 96.5528 99.8141C96.8646 100.041 97.2267 100.188 97.6081 100.243L109.363 101.951C109.71 102.002 109.832 102.266 109.868 102.377C109.904 102.489 109.961 102.774 109.71 103.019L101.204 111.31C100.928 111.579 100.722 111.911 100.603 112.278C100.483 112.644 100.455 113.034 100.521 113.414L102.528 125.121C102.588 125.468 102.374 125.665 102.279 125.734C102.184 125.802 101.931 125.945 101.62 125.781L97.3677 123.546C97.2659 123.492 97.1546 123.459 97.0401 123.449C96.9257 123.439 96.8103 123.451 96.7005 123.485C96.5907 123.519 96.4887 123.574 96.4004 123.648C96.312 123.721 96.239 123.812 96.1855 123.913C96.132 124.015 96.0991 124.126 96.0886 124.241C96.0781 124.355 96.0903 124.471 96.1244 124.58C96.1585 124.69 96.2139 124.792 96.2874 124.881C96.361 124.969 96.4512 125.042 96.5529 125.095L100.805 127.331C101.147 127.511 101.527 127.606 101.913 127.606C102.404 127.606 102.892 127.453 103.308 127.15C104.045 126.614 104.408 125.723 104.254 124.825L102.246 113.118ZM94.039 121.796L91.1061 120.254C90.765 120.075 90.3854 119.981 90 119.981C89.6147 119.981 89.2351 120.075 88.894 120.254L78.3805 125.781C78.0697 125.945 77.8157 125.803 77.721 125.734C77.6263 125.665 77.4125 125.468 77.4719 125.121L79.4798 113.414C79.545 113.034 79.5168 112.645 79.3977 112.278C79.2786 111.912 79.0722 111.579 78.7962 111.311L70.2906 103.019C70.0391 102.774 70.096 102.489 70.1322 102.378C70.1684 102.266 70.2901 102.002 70.6378 101.951L82.3922 100.243C82.7736 100.188 83.1358 100.041 83.4476 99.8142C83.7593 99.5877 84.0113 99.2888 84.1819 98.9432L85.129 97.0241C85.2317 96.816 85.2476 96.5755 85.173 96.3556C85.0985 96.1358 84.9396 95.9546 84.7314 95.8518C84.5233 95.7491 84.2828 95.7332 84.063 95.8078C83.8431 95.8823 83.6619 96.0411 83.5591 96.2493L82.612 98.1684C82.5671 98.2594 82.5007 98.3381 82.4185 98.3978C82.3364 98.4575 82.241 98.4963 82.1405 98.5109L70.3859 100.219C69.484 100.35 68.7488 100.97 68.4672 101.837C68.1856 102.703 68.4161 103.637 69.0686 104.273L77.5743 112.564C77.647 112.635 77.7014 112.722 77.7328 112.819C77.7641 112.915 77.7715 113.018 77.7543 113.118L75.7465 124.825C75.5924 125.723 75.9547 126.614 76.6921 127.15C77.1087 127.453 77.5961 127.606 78.087 127.606C78.4646 127.606 78.8444 127.515 79.1952 127.331L89.7087 121.803C89.7986 121.756 89.8986 121.732 90.0001 121.732C90.1016 121.732 90.2016 121.756 90.2915 121.803L93.2244 123.345C93.4295 123.45 93.6678 123.47 93.8875 123.401C94.1073 123.331 94.2906 123.177 94.3979 122.973C94.5051 122.769 94.5276 122.531 94.4604 122.311C94.3932 122.09 94.2418 121.905 94.039 121.796ZM64.5682 87.5712L71.6809 91.1284C71.9472 91.2623 72.2411 91.3322 72.5392 91.3326C73.0023 91.3326 73.4586 91.1624 73.8203 90.8341C74.4089 90.2998 74.605 89.4752 74.3197 88.7333L71.4668 81.3101C71.1022 80.3616 70.0231 79.8578 69.0612 80.1872C66.5785 81.0372 64.7691 82.6794 63.6831 85.0684C63.2624 85.994 63.6594 87.1167 64.5682 87.5712ZM65.2769 85.7929C66.1678 83.8328 67.5912 82.5409 69.6284 81.8436C69.6425 81.8387 69.6574 81.8364 69.6727 81.8364C69.7387 81.8364 69.8097 81.8786 69.8327 81.9382L72.6858 89.3614C72.6965 89.3894 72.7252 89.464 72.6438 89.5378C72.5625 89.6118 72.491 89.5761 72.464 89.5626L65.3512 86.0054C65.281 85.9703 65.2441 85.865 65.2769 85.7929ZM106.18 90.8341C106.541 91.1623 106.998 91.3326 107.461 91.3326C107.752 91.3326 108.045 91.2655 108.319 91.1284L115.432 87.5712C116.341 87.1168 116.738 85.9941 116.317 85.0685C115.231 82.6796 113.422 81.0372 110.939 80.1872C109.977 79.858 108.898 80.3617 108.534 81.3101L105.68 88.7333C105.395 89.4752 105.591 90.2998 106.18 90.8341ZM107.315 89.3614L110.168 81.9381C110.19 81.8785 110.262 81.8363 110.327 81.8363C110.343 81.8363 110.358 81.8387 110.372 81.8435C112.409 82.5409 113.832 83.8328 114.723 85.7927C114.756 85.8648 114.719 85.9702 114.649 86.0053L107.536 89.5625C107.509 89.5759 107.438 89.6117 107.356 89.5377C107.275 89.464 107.304 89.3894 107.315 89.3614ZM73.8203 129.166C73.2316 128.632 72.3919 128.516 71.6809 128.872L64.5682 132.429C63.6594 132.883 63.2624 134.006 63.6831 134.932C64.7691 137.321 66.5785 138.963 69.0612 139.813C69.2566 139.88 69.4618 139.914 69.6684 139.914C70.4405 139.914 71.178 139.441 71.4668 138.69L74.3198 131.267C74.605 130.525 74.409 129.7 73.8203 129.166ZM72.6858 130.639L69.8326 138.062C69.8044 138.135 69.7031 138.182 69.6282 138.157C67.5912 137.459 66.1678 136.168 65.2769 134.207C65.2441 134.135 65.281 134.03 65.3513 133.995L72.464 130.438C72.4783 130.43 72.5051 130.417 72.5392 130.417C72.5694 130.417 72.6055 130.428 72.6438 130.462C72.7251 130.536 72.6965 130.611 72.6858 130.639ZM115.432 132.429L114.212 131.819C114.109 131.766 113.997 131.735 113.882 131.726C113.766 131.717 113.651 131.731 113.541 131.767C113.431 131.803 113.33 131.861 113.242 131.936C113.155 132.012 113.083 132.104 113.031 132.207C112.98 132.31 112.949 132.423 112.941 132.538C112.933 132.653 112.948 132.769 112.985 132.878C113.022 132.988 113.08 133.089 113.156 133.176C113.233 133.263 113.325 133.334 113.429 133.384L114.649 133.995C114.719 134.03 114.756 134.135 114.723 134.207C113.833 136.167 112.409 137.459 110.372 138.156C110.298 138.182 110.196 138.135 110.168 138.062L107.315 130.639C107.304 130.611 107.275 130.536 107.357 130.462C107.438 130.388 107.51 130.424 107.536 130.438L110.056 131.698C110.159 131.749 110.271 131.78 110.386 131.788C110.5 131.796 110.615 131.782 110.724 131.745C110.833 131.709 110.934 131.651 111.021 131.576C111.108 131.501 111.179 131.409 111.23 131.306C111.282 131.203 111.313 131.092 111.321 130.977C111.329 130.862 111.314 130.747 111.278 130.638C111.242 130.529 111.184 130.428 111.109 130.341C111.034 130.254 110.942 130.183 110.839 130.132L108.319 128.872C107.608 128.516 106.769 128.632 106.18 129.166C105.591 129.7 105.395 130.525 105.68 131.267L108.534 138.69C108.822 139.441 109.56 139.914 110.332 139.914C110.534 139.914 110.739 139.881 110.939 139.813C113.422 138.963 115.231 137.321 116.317 134.932C116.738 134.006 116.341 132.883 115.432 132.429ZM66.8529 110.015C66.8659 109.401 66.5332 108.847 65.9848 108.57L62.6955 106.909C62.5056 106.813 62.2987 106.757 62.0867 106.743C61.8747 106.728 61.662 106.757 61.4611 106.826C61.0568 106.965 60.7348 107.255 60.5547 107.64C59.8149 109.224 59.8151 110.758 60.5553 112.199C60.6881 112.459 60.8901 112.677 61.1389 112.829C61.3877 112.981 61.6737 113.062 61.9654 113.062C62.184 113.062 62.4059 113.017 62.6175 112.921L65.9245 111.422C66.4843 111.168 66.8401 110.629 66.8529 110.015ZM62.0441 111.258C61.6511 110.404 61.658 109.515 62.0652 108.552L64.8802 109.973L62.0441 111.258ZM119.445 107.64C119.265 107.255 118.943 106.966 118.539 106.826C118.338 106.757 118.125 106.728 117.913 106.743C117.701 106.757 117.494 106.813 117.305 106.909L114.015 108.57C113.467 108.847 113.134 109.401 113.147 110.015C113.16 110.629 113.516 111.168 114.075 111.422L117.382 112.921C117.587 113.014 117.81 113.062 118.035 113.062C118.611 113.062 119.164 112.745 119.445 112.199C120.185 110.757 120.185 109.224 119.445 107.64ZM117.956 111.258L115.12 109.973L117.935 108.552C118.342 109.515 118.349 110.403 117.956 111.258ZM80.8283 86.3425C80.8803 86.5257 80.9906 86.687 81.1425 86.802C81.2944 86.9169 81.4796 86.9792 81.6701 86.9793C81.8054 86.9794 81.939 86.9481 82.0602 86.8878C82.1815 86.8276 82.2871 86.74 82.3688 86.632C82.4504 86.524 82.5059 86.3986 82.5309 86.2655C82.5559 86.1324 82.5496 85.9954 82.5127 85.8651L81.5713 82.5432C81.54 82.4326 81.4872 82.3293 81.4159 82.2391C81.3447 82.1489 81.2563 82.0736 81.1559 82.0175C81.0556 81.9615 80.9451 81.9258 80.8309 81.9124C80.7168 81.8991 80.6011 81.9084 80.4905 81.9397C80.3799 81.9711 80.2765 82.0239 80.1864 82.0952C80.0962 82.1665 80.0209 82.2548 79.9649 82.3552C79.9088 82.4555 79.8731 82.566 79.8597 82.6801C79.8464 82.7943 79.8556 82.91 79.887 83.0206L80.8283 86.3425ZM69.392 95.7835C69.4389 95.6786 69.4647 95.5654 69.4679 95.4505C69.4711 95.3356 69.4516 95.2212 69.4106 95.1138C69.3696 95.0065 69.3078 94.9082 69.2288 94.8247C69.1498 94.7412 69.0551 94.6741 68.9502 94.6272L66.3394 93.4601C66.1275 93.3653 65.8866 93.3587 65.6697 93.4415C65.4528 93.5244 65.2778 93.69 65.183 93.9019C65.0883 94.1139 65.0816 94.3548 65.1645 94.5716C65.2473 94.7885 65.413 94.9636 65.6249 95.0583L68.2357 96.2254C68.3479 96.2757 68.4695 96.3018 68.5925 96.3018C68.7615 96.3019 68.927 96.253 69.0689 96.161C69.2108 96.069 69.323 95.9379 69.392 95.7835ZM65.3316 119.884C65.1739 119.988 65.0538 120.139 64.9891 120.316C64.9245 120.493 64.9187 120.687 64.9728 120.867C65.0268 121.048 65.1377 121.206 65.289 121.319C65.4402 121.431 65.6238 121.492 65.8123 121.492C65.9826 121.492 66.1492 121.442 66.2914 121.348L68.683 119.78C69.0873 119.515 69.2002 118.973 68.9351 118.568C68.6701 118.164 68.1274 118.051 67.7232 118.316L65.3316 119.884ZM83.4502 132.645C83.3492 132.59 83.2383 132.556 83.124 132.544C83.0097 132.532 82.8941 132.543 82.7839 132.576C82.6737 132.608 82.5711 132.663 82.4818 132.735C82.3925 132.807 82.3184 132.897 82.2636 132.998L80.9011 135.512C80.8463 135.613 80.8119 135.724 80.8 135.838C80.7881 135.953 80.7988 136.068 80.8315 136.178C80.8642 136.288 80.9184 136.391 80.9908 136.48C81.0632 136.57 81.1525 136.644 81.2535 136.699C81.3546 136.753 81.4654 136.788 81.5798 136.8C81.6941 136.812 81.8097 136.801 81.9199 136.768C82.0301 136.735 82.1328 136.681 82.2221 136.609C82.3113 136.537 82.3855 136.447 82.4402 136.346L83.8028 133.832C83.9134 133.628 83.9384 133.388 83.8722 133.166C83.8061 132.943 83.6543 132.756 83.4502 132.645ZM98.091 86.946C98.1688 86.9681 98.2493 86.9793 98.3302 86.9793C98.5206 86.9792 98.7058 86.9169 98.8577 86.802C99.0096 86.687 99.1199 86.5257 99.1719 86.3425L100.113 83.0206C100.145 82.91 100.154 82.7943 100.14 82.6801C100.127 82.566 100.091 82.4555 100.035 82.3552C99.9793 82.2548 99.904 82.1665 99.8139 82.0952C99.7237 82.0239 99.6203 81.9711 99.5097 81.9397C99.3991 81.9084 99.2835 81.8991 99.1693 81.9125C99.0551 81.9259 98.9447 81.9616 98.8443 82.0176C98.744 82.0737 98.6556 82.1489 98.5843 82.2391C98.5131 82.3293 98.4602 82.4326 98.4289 82.5432L97.4875 85.8651C97.4562 85.9757 97.4469 86.0914 97.4603 86.2056C97.4736 86.3198 97.5094 86.4302 97.5654 86.5305C97.6214 86.6309 97.6967 86.7193 97.7869 86.7905C97.8771 86.8618 97.9804 86.9146 98.091 86.946ZM114.817 93.9018C114.722 93.6899 114.547 93.5244 114.331 93.4415C114.114 93.3586 113.873 93.3653 113.661 93.46L111.05 94.6271C110.945 94.674 110.851 94.7411 110.772 94.8246C110.693 94.9081 110.631 95.0063 110.59 95.1137C110.549 95.2211 110.529 95.3355 110.532 95.4504C110.536 95.5653 110.561 95.6785 110.608 95.7834C110.677 95.9378 110.789 96.0689 110.931 96.1609C111.073 96.2529 111.239 96.3018 111.408 96.3017C111.527 96.3017 111.649 96.2772 111.765 96.2253L114.375 95.0582C114.587 94.9634 114.753 94.7883 114.836 94.5715C114.919 94.3546 114.912 94.1138 114.817 93.9018ZM111.065 118.568C110.938 118.762 110.893 118.999 110.94 119.226C110.987 119.454 111.123 119.653 111.317 119.78L113.709 121.348C113.805 121.411 113.912 121.455 114.025 121.476C114.138 121.498 114.254 121.497 114.367 121.473C114.479 121.45 114.586 121.405 114.681 121.34C114.776 121.275 114.858 121.192 114.921 121.096C115.048 120.902 115.093 120.665 115.046 120.438C114.998 120.211 114.863 120.011 114.668 119.884L112.277 118.316C112.083 118.189 111.846 118.144 111.619 118.191C111.391 118.239 111.192 118.374 111.065 118.568ZM97.7367 132.998C97.682 132.897 97.6078 132.807 97.5186 132.735C97.4293 132.663 97.3267 132.608 97.2165 132.576C97.1063 132.543 96.9907 132.532 96.8764 132.544C96.762 132.556 96.6512 132.59 96.5501 132.645C96.346 132.756 96.1942 132.943 96.1281 133.166C96.062 133.388 96.0869 133.628 96.1975 133.832L97.5601 136.346C97.6148 136.447 97.6889 136.537 97.7782 136.609C97.8675 136.681 97.9701 136.736 98.0803 136.768C98.1905 136.801 98.3061 136.812 98.4204 136.8C98.5348 136.788 98.6456 136.753 98.7467 136.699C98.9508 136.588 99.1026 136.401 99.1687 136.178C99.2348 135.956 99.2099 135.716 99.0993 135.512L97.7367 132.998Z" fill="url(#paint0_linear_126_51)"/>
</g>
<g filter="url(#filter1_f_126_51)">
<circle cx="100" cy="100" r="20" fill="#AEC4B4"/>
</g>
<defs>
<filter id="filter0_d_126_51" x="50" y="70.0863" width="80" height="79.8274" filterUnits="userSpaceOnUse" color-interpolation-filters="sRGB">
<feFlood flood-opacity="0" result="BackgroundImageFix"/>
<feColorMatrix in="SourceAlpha" type="matrix" values="0 0 0 0 0 0 0 0 0 0 0 0 0 0 0 0 0 0 127 0" result="hardAlpha"/>
<feOffset/>
<feGaussianBlur stdDeviation="5"/>
<feComposite in2="hardAlpha" operator="out"/>
<feColorMatrix type="matrix" values="0 0 0 0 0.00392157 0 0 0 0 0.760784 0 0 0 0 0.170431 0 0 0 0.5 0"/>
<feBlend mode="normal" in2="BackgroundImageFix" result="effect1_dropShadow_126_51"/>
<feBlend mode="normal" in="SourceGraphic" in2="effect1_dropShadow_126_51" result="shape"/>
</filter>
<filter id="filter1_f_126_51" x="0" y="0" width="200" height="200" filterUnits="userSpaceOnUse" color-interpolation-filters="sRGB">
<feFlood flood-opacity="0" result="BackgroundImageFix"/>
<feBlend mode="normal" in="SourceGraphic" in2="BackgroundImageFix" result="shape"/>
<feGaussianBlur stdDeviation="40" result="effect1_foregroundBlur_126_51"/>
</filter>
<linearGradient id="paint0_linear_126_51" x1="60" y1="80.0863" x2="123.501" y2="84.0665" gradientUnits="userSpaceOnUse">
<stop stop-color="#00AA30"/>
<stop offset="1" stop-color="#00D03A"/>
</linearGradient>
</defs>
</svg>
