<svg width="80" height="80" viewBox="0 0 80 80" fill="none" xmlns="http://www.w3.org/2000/svg">
<g filter="url(#filter0_d_126_52)">
<path d="M52.2457 43.1182C52.2286 43.0181 52.236 42.9154 52.2674 42.8188C52.2988 42.7223 52.3532 42.6348 52.4259 42.564L60.9316 34.2729C61.5842 33.6369 61.8146 32.7032 61.533 31.8365C61.2514 30.9698 60.5161 30.3499 59.6142 30.2189L47.8597 28.5109C47.7592 28.4963 47.6638 28.4575 47.5817 28.3978C47.4995 28.3382 47.4331 28.2594 47.3882 28.1684L42.1315 17.5169C41.7282 16.6997 40.9114 16.192 40 16.192C39.0887 16.192 38.272 16.6997 37.8687 17.5169L35.2209 22.8818C35.1182 23.09 35.1023 23.3304 35.1769 23.5503C35.2514 23.7701 35.4103 23.9514 35.6184 24.0541C35.8266 24.1569 36.0671 24.1727 36.2869 24.0982C36.5068 24.0236 36.688 23.8648 36.7908 23.6566L39.4386 18.2916C39.594 17.9766 39.8831 17.9425 40 17.9425C40.1171 17.9425 40.4062 17.9766 40.5616 18.2916L45.8185 28.9432C45.989 29.2887 46.2411 29.5876 46.5528 29.8141C46.8646 30.0405 47.2267 30.1878 47.6081 30.2432L59.3625 31.9513C59.7102 32.0018 59.8318 32.2661 59.868 32.3775C59.9043 32.4888 59.9611 32.7742 59.7096 33.0194L51.204 41.3104C50.928 41.5793 50.7216 41.9114 50.6025 42.2779C50.4835 42.6444 50.4553 43.0344 50.5205 43.4142L52.5284 55.1213C52.5878 55.4675 52.374 55.665 52.2792 55.7338C52.1845 55.8025 51.9311 55.9451 51.6198 55.7814L47.3677 53.5459C47.2659 53.4924 47.1546 53.4595 47.0402 53.449C46.9257 53.4385 46.8103 53.4507 46.7005 53.4848C46.5907 53.5189 46.4887 53.5743 46.4004 53.6478C46.312 53.7214 46.239 53.8116 46.1855 53.9133C46.132 54.0151 46.0991 54.1264 46.0886 54.2408C46.0781 54.3553 46.0903 54.4707 46.1244 54.5805C46.1585 54.6903 46.2139 54.7922 46.2874 54.8806C46.361 54.969 46.4512 55.042 46.5529 55.0955L50.8051 57.3309C51.1467 57.5114 51.527 57.606 51.9134 57.6065C52.4041 57.6065 52.8916 57.4526 53.3081 57.15C54.0454 56.6143 54.4078 55.7235 54.2537 54.8253L52.2457 43.1182ZM44.039 51.7959L41.1061 50.2541C40.765 50.0747 40.3854 49.981 40 49.981C39.6147 49.981 39.2351 50.0747 38.894 50.2541L28.3805 55.7815C28.0697 55.9451 27.8157 55.8027 27.721 55.7339C27.6263 55.665 27.4125 55.4677 27.4719 55.1213L29.4798 43.4143C29.545 43.0345 29.5168 42.6445 29.3977 42.278C29.2786 41.9115 29.0722 41.5795 28.7962 41.3105L20.2906 33.0195C20.0391 32.7743 20.096 32.4889 20.1322 32.3776C20.1684 32.2663 20.2901 32.0019 20.6378 31.9514L32.3922 30.2433C32.7736 30.188 33.1358 30.0407 33.4476 29.8142C33.7593 29.5877 34.0113 29.2888 34.1819 28.9432L35.129 27.0241C35.2317 26.816 35.2476 26.5755 35.173 26.3556C35.0985 26.1358 34.9396 25.9546 34.7314 25.8518C34.5233 25.7491 34.2828 25.7332 34.0629 25.8078C33.8431 25.8823 33.6619 26.0411 33.5591 26.2493L32.612 28.1684C32.5671 28.2594 32.5007 28.3381 32.4185 28.3978C32.3364 28.4575 32.241 28.4963 32.1405 28.5109L20.3859 30.2189C19.484 30.35 18.7488 30.9698 18.4672 31.8365C18.1856 32.7032 18.4161 33.6369 19.0686 34.2729L27.5743 42.564C27.647 42.6348 27.7014 42.7223 27.7328 42.8189C27.7641 42.9155 27.7715 43.0182 27.7543 43.1183L25.7465 54.8252C25.5924 55.7235 25.9547 56.6142 26.6921 57.1499C27.1087 57.4526 27.5961 57.6065 28.087 57.6064C28.4646 57.6064 28.8444 57.5152 29.1952 57.3308L39.7087 51.8035C39.7986 51.7562 39.8986 51.7315 40.0001 51.7315C40.1016 51.7315 40.2016 51.7562 40.2915 51.8035L43.2244 53.3453C43.4295 53.4503 43.6678 53.4701 43.8875 53.4005C44.1072 53.3309 44.2906 53.1774 44.3979 52.9734C44.5051 52.7694 44.5276 52.5314 44.4604 52.3109C44.3932 52.0904 44.2418 51.9054 44.039 51.7959ZM14.5682 17.5712L21.6809 21.1284C21.9472 21.2623 22.2411 21.3322 22.5392 21.3326C23.0023 21.3326 23.4586 21.1624 23.8203 20.8341C24.4089 20.2998 24.605 19.4752 24.3197 18.7333L21.4668 11.3101C21.1022 10.3616 20.0231 9.85776 19.0612 10.1872C16.5785 11.0372 14.7691 12.6794 13.6831 15.0684C13.2624 15.994 13.6594 17.1167 14.5682 17.5712ZM15.2769 15.7929C16.1678 13.8328 17.5912 12.5409 19.6284 11.8436C19.6425 11.8387 19.6574 11.8364 19.6727 11.8364C19.7387 11.8364 19.8097 11.8786 19.8327 11.9382L22.6858 19.3614C22.6965 19.3894 22.7252 19.464 22.6438 19.5378C22.5625 19.6118 22.491 19.5761 22.464 19.5626L15.3512 16.0054C15.281 15.9703 15.2441 15.865 15.2769 15.7929ZM56.1798 20.8341C56.5415 21.1623 56.9978 21.3326 57.461 21.3326C57.7516 21.3326 58.0451 21.2655 58.3193 21.1284L65.432 17.5712C66.3407 17.1168 66.7377 15.9941 66.3172 15.0685C65.2313 12.6796 63.4218 11.0372 60.9392 10.1872C59.9772 9.858 58.8982 10.3617 58.5336 11.3101L55.6805 18.7333C55.3952 19.4752 55.5912 20.2998 56.1798 20.8341ZM57.3145 19.3614L60.1676 11.9381C60.1905 11.8785 60.2616 11.8363 60.3275 11.8363C60.3429 11.8363 60.358 11.8387 60.372 11.8435C62.409 12.5409 63.8324 13.8328 64.7233 15.7927C64.7561 15.8648 64.7193 15.9702 64.6489 16.0053L57.5362 19.5625C57.5094 19.5759 57.4379 19.6117 57.3564 19.5377C57.2751 19.464 57.3037 19.3894 57.3145 19.3614ZM23.8203 59.1659C23.2316 58.6316 22.3919 58.5161 21.6809 58.8717L14.5682 62.4289C13.6594 62.8833 13.2624 64.0061 13.6831 64.9316C14.7691 67.3205 16.5785 68.9628 19.0612 69.8128C19.2566 69.8797 19.4618 69.9138 19.6684 69.9137C20.4405 69.9137 21.178 69.4413 21.4668 68.69L24.3198 61.2668C24.605 60.5249 24.409 59.7002 23.8203 59.1659ZM22.6858 60.6388L19.8326 68.0621C19.8044 68.1355 19.7031 68.1823 19.6282 68.1567C17.5912 67.4593 16.1678 66.1675 15.2769 64.2073C15.2441 64.1352 15.281 64.0299 15.3513 63.9948L22.464 60.4376C22.4783 60.4305 22.5051 60.4171 22.5392 60.4171C22.5694 60.4171 22.6055 60.4276 22.6438 60.4623C22.7251 60.5361 22.6965 60.6107 22.6858 60.6388ZM65.432 62.4289L64.2119 61.8186C64.109 61.7661 63.9967 61.7346 63.8815 61.7257C63.7663 61.7168 63.6505 61.7309 63.5408 61.767C63.4311 61.8031 63.3296 61.8605 63.2422 61.9361C63.1547 62.0116 63.0831 62.1037 63.0315 62.207C62.9798 62.3103 62.9491 62.4228 62.9411 62.5381C62.9332 62.6533 62.9481 62.769 62.9851 62.8785C63.022 62.9879 63.0803 63.089 63.1565 63.1758C63.2327 63.2626 63.3253 63.3335 63.429 63.3844L64.6491 63.9947C64.7195 64.0298 64.7562 64.1351 64.7235 64.2072C63.8326 66.1673 62.4093 67.4592 60.3723 68.1565C60.2976 68.1822 60.196 68.1353 60.1678 68.0618L57.3148 60.6387C57.3039 60.6107 57.2753 60.5361 57.3567 60.4622C57.4379 60.3885 57.5096 60.4242 57.5364 60.4376L60.0561 61.6977C60.1589 61.7491 60.2709 61.7798 60.3855 61.788C60.5002 61.7961 60.6153 61.7816 60.7244 61.7453C60.8335 61.7089 60.9343 61.6514 61.0211 61.5761C61.1079 61.5008 61.1791 61.4091 61.2305 61.3063C61.2819 61.2035 61.3126 61.0915 61.3207 60.9769C61.3289 60.8622 61.3144 60.7471 61.278 60.638C61.2417 60.5289 61.1842 60.4281 61.1089 60.3413C61.0336 60.2545 60.9419 60.1833 60.839 60.1319L58.3193 58.8718C57.6084 58.5162 56.7686 58.6318 56.18 59.1659C55.5913 59.7002 55.3952 60.5249 55.6805 61.2668L58.5336 68.69C58.8224 69.4413 59.5598 69.9137 60.332 69.9137C60.5344 69.9137 60.7394 69.8812 60.9392 69.8128C63.4218 68.9628 65.2313 67.3205 66.317 64.9316C66.7377 64.0062 66.3408 62.8833 65.432 62.4289ZM16.8529 40.0149C16.8659 39.4007 16.5332 38.847 15.9848 38.5701L12.6955 36.9088C12.5056 36.8135 12.2987 36.757 12.0867 36.7427C11.8747 36.7284 11.662 36.7566 11.4611 36.8256C11.0568 36.9654 10.7348 37.2547 10.5547 37.6404C9.81488 39.2239 9.81512 40.7577 10.5553 42.1992C10.6881 42.4589 10.8901 42.6769 11.1389 42.8292C11.3877 42.9814 11.6737 43.0621 11.9654 43.0622C12.184 43.0622 12.4059 43.0166 12.6175 42.9206L15.9245 41.422C16.4843 41.1682 16.8401 40.6292 16.8529 40.0149ZM12.0441 41.2584C11.6511 40.4036 11.658 39.5147 12.0652 38.5516L14.8802 39.9734L12.0441 41.2584ZM69.4453 37.6405C69.2652 37.2549 68.9433 36.9655 68.539 36.8256C68.3381 36.7566 68.1254 36.7284 67.9134 36.7426C67.7014 36.7569 67.4944 36.8134 67.3046 36.9088L64.0153 38.5701C63.4668 38.8471 63.1341 39.4007 63.1472 40.0149C63.1601 40.6292 63.5158 41.1682 64.0754 41.4218L67.3824 42.9206C67.5873 43.0138 67.8097 43.062 68.0347 43.0621C68.611 43.0621 69.1643 42.7453 69.4447 42.1992C70.185 40.7574 70.1852 39.2236 69.4453 37.6405ZM67.9561 41.2584L65.1201 39.9732L67.9351 38.5516C68.3423 39.5147 68.3491 40.4034 67.9561 41.2584ZM30.8283 16.3425C30.8803 16.5257 30.9906 16.687 31.1425 16.802C31.2944 16.9169 31.4796 16.9792 31.6701 16.9793C31.8054 16.9794 31.939 16.9481 32.0602 16.8878C32.1815 16.8276 32.2871 16.74 32.3688 16.632C32.4504 16.524 32.5059 16.3986 32.5309 16.2655C32.5559 16.1324 32.5496 15.9954 32.5127 15.8651L31.5713 12.5432C31.54 12.4326 31.4872 12.3293 31.4159 12.2391C31.3447 12.1489 31.2563 12.0736 31.1559 12.0175C31.0556 11.9615 30.9451 11.9258 30.8309 11.9124C30.7168 11.8991 30.6011 11.9084 30.4905 11.9397C30.3799 11.9711 30.2765 12.0239 30.1864 12.0952C30.0962 12.1665 30.0209 12.2548 29.9649 12.3552C29.9088 12.4555 29.8731 12.566 29.8597 12.6801C29.8464 12.7943 29.8556 12.91 29.887 13.0206L30.8283 16.3425ZM19.392 25.7835C19.4389 25.6786 19.4647 25.5654 19.4679 25.4505C19.4711 25.3356 19.4516 25.2212 19.4106 25.1138C19.3696 25.0065 19.3078 24.9082 19.2288 24.8247C19.1498 24.7412 19.0551 24.6741 18.9502 24.6272L16.3394 23.4601C16.1275 23.3653 15.8866 23.3587 15.6697 23.4415C15.4528 23.5244 15.2778 23.69 15.183 23.9019C15.0883 24.1139 15.0816 24.3548 15.1645 24.5716C15.2473 24.7885 15.413 24.9636 15.6249 25.0583L18.2357 26.2254C18.3479 26.2757 18.4695 26.3018 18.5925 26.3018C18.7615 26.3019 18.927 26.253 19.0689 26.161C19.2108 26.069 19.323 25.9379 19.392 25.7835ZM15.3316 49.8843C15.1739 49.9876 15.0538 50.1391 14.9891 50.3162C14.9245 50.4933 14.9187 50.6866 14.9728 50.8672C15.0268 51.0478 15.1377 51.2062 15.289 51.3187C15.4402 51.4313 15.6238 51.4919 15.8123 51.4917C15.9826 51.4918 16.1492 51.4419 16.2914 51.3483L18.683 49.7803C19.0873 49.5153 19.2002 48.9727 18.9351 48.5684C18.6701 48.1641 18.1274 48.0511 17.7232 48.3163L15.3316 49.8843ZM33.4502 62.6453C33.3492 62.5905 33.2383 62.5561 33.124 62.5442C33.0097 62.5322 32.8941 62.5429 32.7839 62.5757C32.6737 62.6084 32.5711 62.6625 32.4818 62.7349C32.3925 62.8074 32.3184 62.8967 32.2636 62.9977L30.9011 65.512C30.8463 65.613 30.8119 65.7239 30.8 65.8382C30.7881 65.9525 30.7988 66.0681 30.8315 66.1783C30.8642 66.2885 30.9184 66.3911 30.9908 66.4804C31.0632 66.5697 31.1525 66.6438 31.2535 66.6986C31.3546 66.7534 31.4654 66.7877 31.5798 66.7997C31.6941 66.8116 31.8097 66.8009 31.9199 66.7682C32.0301 66.7355 32.1328 66.6814 32.2221 66.6089C32.3113 66.5365 32.3855 66.4472 32.4402 66.3461L33.8028 63.8318C33.9134 63.6277 33.9384 63.3881 33.8722 63.1655C33.8061 62.943 33.6543 62.7559 33.4502 62.6453ZM48.091 16.946C48.1688 16.9681 48.2493 16.9793 48.3302 16.9793C48.5206 16.9792 48.7058 16.9169 48.8577 16.802C49.0096 16.687 49.1199 16.5257 49.1719 16.3425L50.1132 13.0206C50.1446 12.91 50.1538 12.7943 50.1405 12.6801C50.1271 12.566 50.0914 12.4555 50.0353 12.3552C49.9793 12.2548 49.904 12.1665 49.8138 12.0952C49.7237 12.0239 49.6203 11.9711 49.5097 11.9397C49.3991 11.9084 49.2834 11.8991 49.1693 11.9125C49.0551 11.9259 48.9447 11.9616 48.8443 12.0176C48.744 12.0737 48.6556 12.1489 48.5843 12.2391C48.513 12.3293 48.4602 12.4326 48.4289 12.5432L47.4875 15.8651C47.4562 15.9757 47.4469 16.0914 47.4603 16.2056C47.4736 16.3198 47.5094 16.4302 47.5654 16.5305C47.6214 16.6309 47.6967 16.7193 47.7869 16.7905C47.8771 16.8618 47.9804 16.9146 48.091 16.946ZM64.8172 23.9018C64.7224 23.6899 64.5474 23.5244 64.3305 23.4415C64.1137 23.3586 63.8729 23.3653 63.6609 23.46L61.0502 24.6271C60.9452 24.674 60.8505 24.7411 60.7715 24.8246C60.6925 24.9081 60.6308 25.0063 60.5897 25.1137C60.5487 25.2211 60.5292 25.3355 60.5324 25.4504C60.5356 25.5653 60.5614 25.6785 60.6083 25.7834C60.6773 25.9378 60.7895 26.0689 60.9314 26.1609C61.0733 26.2529 61.2388 26.3018 61.4079 26.3017C61.5273 26.3017 61.6485 26.2772 61.7646 26.2253L64.3754 25.0582C64.5873 24.9634 64.7529 24.7883 64.8358 24.5715C64.9186 24.3546 64.9119 24.1138 64.8172 23.9018ZM61.065 48.5683C60.9377 48.7624 60.8928 48.9992 60.94 49.2264C60.9873 49.4537 61.1229 49.6529 61.3171 49.7802L63.7087 51.3482C63.8048 51.4113 63.9124 51.4548 64.0253 51.4763C64.1383 51.4978 64.2543 51.4968 64.3669 51.4734C64.4794 51.4499 64.5863 51.4046 64.6813 51.3398C64.7763 51.2751 64.8576 51.1923 64.9206 51.0961C65.0478 50.9019 65.0928 50.6652 65.0455 50.4379C64.9982 50.2107 64.8626 50.0115 64.6685 49.8842L62.2769 48.3162C62.0827 48.1889 61.846 48.144 61.6187 48.1913C61.3914 48.2385 61.1923 48.3742 61.065 48.5683ZM47.7367 62.9978C47.682 62.8967 47.6078 62.8074 47.5186 62.735C47.4293 62.6626 47.3267 62.6084 47.2165 62.5757C47.1063 62.5429 46.9907 62.5322 46.8764 62.5442C46.762 62.5561 46.6512 62.5905 46.5501 62.6453C46.346 62.7559 46.1942 62.943 46.1281 63.1655C46.062 63.3881 46.0869 63.6277 46.1975 63.8318L47.5601 66.3461C47.6148 66.4472 47.689 66.5365 47.7782 66.609C47.8675 66.6814 47.9701 66.7355 48.0803 66.7683C48.1905 66.801 48.3061 66.8117 48.4204 66.7998C48.5348 66.7878 48.6456 66.7535 48.7467 66.6987C48.9508 66.5881 49.1026 66.4009 49.1687 66.1784C49.2348 65.9559 49.2099 65.7162 49.0993 65.5121L47.7367 62.9978Z" fill="url(#paint0_linear_126_52)"/>
</g>
<defs>
<filter id="filter0_d_126_52" x="0" y="0.0863037" width="80" height="79.8274" filterUnits="userSpaceOnUse" color-interpolation-filters="sRGB">
<feFlood flood-opacity="0" result="BackgroundImageFix"/>
<feColorMatrix in="SourceAlpha" type="matrix" values="0 0 0 0 0 0 0 0 0 0 0 0 0 0 0 0 0 0 127 0" result="hardAlpha"/>
<feOffset/>
<feGaussianBlur stdDeviation="5"/>
<feComposite in2="hardAlpha" operator="out"/>
<feColorMatrix type="matrix" values="0 0 0 0 0.00392157 0 0 0 0 0.760784 0 0 0 0 0.170431 0 0 0 0.5 0"/>
<feBlend mode="normal" in2="BackgroundImageFix" result="effect1_dropShadow_126_52"/>
<feBlend mode="normal" in="SourceGraphic" in2="effect1_dropShadow_126_52" result="shape"/>
</filter>
<linearGradient id="paint0_linear_126_52" x1="10" y1="10.0863" x2="73.5006" y2="14.0665" gradientUnits="userSpaceOnUse">
<stop stop-color="#00AA30"/>
<stop offset="1" stop-color="#00D03A"/>
</linearGradient>
</defs>
</svg>
