<svg width="200" height="200" viewBox="0 0 200 200" fill="none" xmlns="http://www.w3.org/2000/svg">
<g filter="url(#filter0_d_126_88)">
<path d="M113.288 98.3277L114.515 96.9004L115.711 97.9285C115.799 98.0042 115.901 98.0619 116.011 98.0981C116.122 98.1344 116.238 98.1486 116.354 98.1398C116.47 98.1311 116.583 98.0996 116.687 98.0472C116.79 97.9948 116.883 97.9224 116.958 97.8343L118.858 95.6249C119.011 95.4469 119.087 95.2155 119.069 94.9816C119.052 94.7476 118.942 94.5302 118.764 94.3773L112.231 88.7605C112.143 88.6846 112.04 88.6268 111.93 88.5905C111.82 88.5543 111.703 88.5402 111.587 88.5491C111.353 88.5668 111.136 88.6766 110.983 88.8545L109.083 91.064C108.93 91.2419 108.854 91.4733 108.872 91.7073C108.89 91.9413 108.999 92.1586 109.177 92.3116L110.373 93.3397L109.052 94.876C106.347 93.1478 103.268 91.9548 99.9654 91.4481V88.7748H103.012C104.435 88.7748 105.592 87.6178 105.592 86.1956V84.1372C105.592 82.715 104.435 81.558 103.012 81.558H89.7199C88.2977 81.558 87.1407 82.715 87.1407 84.1372V86.1956C87.1407 87.6178 88.2977 88.7748 89.7199 88.7748H92.767V91.4481C89.3997 91.9648 86.265 93.1959 83.521 94.9795L82.1112 93.3397L83.307 92.3116C83.4848 92.1585 83.5946 91.9412 83.6122 91.7072C83.6299 91.4732 83.5539 91.2419 83.401 91.0639L81.5014 88.8544C81.4257 88.7663 81.3333 88.694 81.2296 88.6416C81.1259 88.5892 81.0129 88.5577 80.8971 88.549C80.7812 88.5403 80.6648 88.5544 80.5544 88.5907C80.444 88.627 80.3418 88.6846 80.2537 88.7604L73.7206 94.3772C73.5428 94.5302 73.433 94.7476 73.4154 94.9815C73.3978 95.2155 73.4738 95.4469 73.6266 95.6249L75.5262 97.8343C75.6092 97.9311 75.7122 98.0087 75.8281 98.0618C75.9439 98.115 76.0699 98.1424 76.1974 98.1422C76.409 98.1424 76.6136 98.0665 76.7738 97.9283L77.9695 96.9004L79.3127 98.4627C78.1472 99.6783 77.114 101.014 76.2306 102.448C76.2004 102.445 76.17 102.443 76.1396 102.443H70.5525C70.3178 102.443 70.0928 102.537 69.9269 102.703C69.761 102.868 69.6678 103.094 69.6678 103.328C69.6678 103.563 69.761 103.788 69.9269 103.954C70.0928 104.12 70.3178 104.213 70.5525 104.213H75.245C74.7766 105.143 74.3706 106.102 74.0295 107.086H65.0903C64.8556 107.086 64.6306 107.179 64.4647 107.345C64.2988 107.511 64.2055 107.736 64.2055 107.971C64.2055 108.205 64.2988 108.43 64.4647 108.596C64.6306 108.762 64.8556 108.855 65.0903 108.855H73.4924C73.1695 110.097 72.9489 111.364 72.8329 112.642H60.8847C60.6501 112.642 60.4251 112.735 60.2591 112.901C60.0932 113.067 60 113.292 60 113.527C60 113.761 60.0932 113.986 60.2591 114.152C60.4251 114.318 60.6501 114.411 60.8847 114.411H72.7377C72.7354 114.543 72.7326 114.675 72.7326 114.808C72.7326 115.959 72.8169 117.09 72.9766 118.198H64.2645C64.0299 118.198 63.8048 118.291 63.6389 118.457C63.473 118.623 63.3798 118.848 63.3798 119.082C63.3798 119.317 63.473 119.542 63.6389 119.708C63.8048 119.874 64.0299 119.967 64.2645 119.967H73.3013C73.5188 120.942 73.7986 121.901 74.1387 122.84H69.7267C69.4921 122.84 69.2671 122.933 69.1011 123.099C68.9352 123.265 68.842 123.49 68.842 123.725C68.842 123.959 68.9352 124.184 69.1011 124.35C69.2671 124.516 69.4921 124.609 69.7267 124.609H74.8629C78.5941 132.763 86.8291 138.442 96.3663 138.442C101.348 138.442 106.112 136.91 110.144 134.013C110.332 133.875 110.459 133.668 110.496 133.438C110.532 133.207 110.477 132.972 110.34 132.782C110.204 132.593 109.999 132.465 109.768 132.426C109.538 132.387 109.302 132.441 109.111 132.576C105.382 135.256 100.975 136.673 96.3663 136.673C84.3103 136.673 74.502 126.864 74.502 114.808C74.502 102.752 84.3103 92.9441 96.3663 92.9441C102.202 92.9441 107.512 95.2427 111.437 98.9819C111.445 98.9904 111.454 98.9982 111.462 99.0064C115.63 102.99 118.231 108.601 118.231 114.808C118.231 120.656 115.951 126.151 111.813 130.282C111.731 130.364 111.666 130.462 111.621 130.569C111.576 130.676 111.553 130.791 111.553 130.908C111.553 131.024 111.576 131.139 111.62 131.246C111.665 131.354 111.73 131.451 111.812 131.534C111.978 131.7 112.203 131.793 112.437 131.793C112.672 131.793 112.897 131.7 113.063 131.535C117.536 127.069 120 121.129 120 114.808C120 108.404 117.439 102.588 113.288 98.3277ZM111.748 90.679L116.939 95.1421L116.193 96.0098L111.002 91.5466L111.748 90.679ZM111.715 94.4932L113.173 95.7468L112.005 97.1053C111.525 96.6806 111.029 96.2741 110.515 95.889L111.715 94.4932ZM92.4536 87.0053V83.3274H93.8824V87.0053H92.4536ZM95.6518 83.3274H97.0806V87.0053H95.6518V83.3274ZM98.8501 87.0053V83.3274H100.279V87.0053H98.8501ZM103.822 84.1372V86.1956C103.822 86.4103 103.737 86.6161 103.585 86.7679C103.433 86.9197 103.227 87.0051 103.013 87.0053H102.049V83.3274H103.013C103.227 83.3277 103.433 83.4131 103.585 83.5649C103.737 83.7167 103.822 83.9225 103.822 84.1372ZM88.9103 86.1956V84.1372C88.9106 83.9225 88.9959 83.7167 89.1477 83.5649C89.2995 83.4131 89.5053 83.3277 89.72 83.3274H90.6841V87.0053H89.72C89.5053 87.0051 89.2995 86.9197 89.1477 86.7679C88.9959 86.6161 88.9106 86.4103 88.9103 86.1956ZM76.2911 96.0099L75.5451 95.1423L80.7365 90.6791L81.4825 91.5467L80.2869 92.5747L80.2867 92.5748L77.4868 94.982L77.4865 94.9822L76.2911 96.0099ZM79.3377 95.7241L80.7694 94.4932L82.068 96.0038C81.5579 96.3924 81.0636 96.8016 80.5865 97.2302L79.3112 95.747L79.3377 95.7241ZM94.5365 91.2447V88.7748H98.1961V91.2448C96.978 91.1511 95.7546 91.151 94.5365 91.2447Z" fill="url(#paint0_linear_126_88)"/>
<path d="M88.9565 98.6896C88.8478 98.4816 88.661 98.3254 88.4371 98.2552C88.2132 98.185 87.9706 98.2066 87.7626 98.3153C82.3837 101.127 78.7049 106.394 77.9216 112.405C76.5963 122.575 83.7923 131.928 93.9627 133.253C94.764 133.358 95.5712 133.41 96.3793 133.41C105.575 133.409 113.591 126.57 114.811 117.212C115.453 112.285 114.138 107.403 111.108 103.465C108.078 99.5277 103.696 97.0055 98.7695 96.3634C96.3659 96.0501 93.9687 96.2012 91.6441 96.812C91.4202 96.8743 91.2297 97.0223 91.1139 97.2239C90.9982 97.4255 90.9664 97.6645 91.0255 97.8894C91.0846 98.1142 91.2297 98.3068 91.4297 98.4254C91.6296 98.5441 91.8681 98.5793 92.0938 98.5235C93.2019 98.2323 94.3371 98.056 95.4814 97.9976V100.322C95.4814 100.811 95.8774 101.207 96.3661 101.207C96.8548 101.207 97.2508 100.811 97.2508 100.322V97.9997C97.6804 98.0229 98.1105 98.0619 98.541 98.1179C101.987 98.5669 105.137 100.033 107.656 102.32L106.054 103.923C105.972 104.005 105.907 104.102 105.862 104.21C105.818 104.317 105.795 104.432 105.795 104.548C105.795 104.664 105.818 104.779 105.862 104.887C105.907 104.994 105.972 105.092 106.054 105.174C106.136 105.256 106.234 105.321 106.341 105.366C106.448 105.41 106.563 105.433 106.68 105.433C106.796 105.433 106.911 105.41 107.018 105.366C107.126 105.321 107.223 105.256 107.305 105.174L108.903 103.576C109.182 103.889 109.45 104.212 109.706 104.544C111.821 107.294 113.012 110.552 113.179 113.945H110.984C110.495 113.945 110.099 114.341 110.099 114.829C110.099 115.318 110.495 115.714 110.984 115.714H113.174C113.15 116.138 113.111 116.561 113.056 116.983C112.6 120.48 111.095 123.588 108.899 126.033L107.383 124.517C107.217 124.352 106.993 124.26 106.759 124.261C106.525 124.261 106.3 124.354 106.135 124.52C105.969 124.685 105.876 124.909 105.876 125.143C105.875 125.377 105.967 125.602 106.132 125.768L107.65 127.286C104.863 129.802 101.254 131.381 97.3614 131.61V129.447C97.3614 128.958 96.9654 128.562 96.4766 128.562C95.9879 128.562 95.5919 128.958 95.5919 129.447V131.621C95.1236 131.599 94.6564 131.558 94.1914 131.498C90.7324 131.047 87.6538 129.57 85.2217 127.413L86.7887 125.846C87.1342 125.501 87.1342 124.941 86.7887 124.595C86.4432 124.25 85.883 124.25 85.5376 124.595L83.9616 126.171C81.4077 123.379 79.8012 119.746 79.5654 115.824H81.8588C82.0934 115.824 82.3184 115.731 82.4844 115.565C82.6503 115.399 82.7435 115.174 82.7435 114.94C82.7435 114.705 82.6503 114.48 82.4844 114.314C82.3184 114.148 82.0934 114.055 81.8588 114.055H79.5524C79.5739 113.583 79.6141 113.109 79.6762 112.633C80.1191 109.234 81.5853 106.098 83.8106 103.603L85.4595 105.252C85.6322 105.424 85.8587 105.511 86.0851 105.511C86.3114 105.511 86.5379 105.424 86.7106 105.252C86.8765 105.086 86.9697 104.861 86.9697 104.626C86.9697 104.391 86.8765 104.166 86.7106 104.001L85.0572 102.347C86.1221 101.379 87.3068 100.55 88.5823 99.8831C88.6852 99.8293 88.7766 99.7558 88.8511 99.6667C88.9257 99.5776 88.9819 99.4747 89.0167 99.3639C89.0515 99.253 89.064 99.1364 89.0537 99.0207C89.0434 98.905 89.0104 98.7925 88.9565 98.6896Z" fill="url(#paint1_linear_126_88)"/>
<path d="M96.3664 106.693C96.1317 106.693 95.9067 106.786 95.7408 106.952C95.5748 107.118 95.4816 107.343 95.4816 107.577V112.833C94.7272 113.172 94.1998 113.929 94.1998 114.808C94.1998 116.003 95.1717 116.975 96.3664 116.975C96.6938 116.975 97.0034 116.9 97.282 116.769L103.185 122.672C103.267 122.754 103.364 122.819 103.472 122.864C103.579 122.908 103.694 122.931 103.81 122.931C103.985 122.931 104.156 122.879 104.302 122.782C104.447 122.684 104.561 122.546 104.628 122.385C104.695 122.223 104.712 122.045 104.678 121.873C104.644 121.702 104.56 121.544 104.436 121.42L98.4419 115.426C98.5004 115.23 98.5329 115.023 98.5329 114.808C98.5329 113.929 98.0055 113.172 97.2512 112.833V107.577C97.2512 107.343 97.1579 107.118 96.992 106.952C96.8261 106.786 96.601 106.693 96.3664 106.693ZM95.9693 114.808C95.9694 114.703 96.0113 114.602 96.0857 114.528C96.1602 114.453 96.2611 114.411 96.3664 114.411C96.5852 114.411 96.7633 114.589 96.7633 114.808C96.7633 115.027 96.5852 115.205 96.3664 115.205C96.2611 115.205 96.1602 115.163 96.0857 115.089C96.0113 115.014 95.9694 114.913 95.9693 114.808Z" fill="url(#paint2_linear_126_88)"/>
</g>
<g filter="url(#filter1_f_126_88)">
<circle cx="100" cy="100" r="20" fill="#AEC4B4"/>
</g>
<defs>
<filter id="filter0_d_126_88" x="50" y="71.558" width="80" height="76.884" filterUnits="userSpaceOnUse" color-interpolation-filters="sRGB">
<feFlood flood-opacity="0" result="BackgroundImageFix"/>
<feColorMatrix in="SourceAlpha" type="matrix" values="0 0 0 0 0 0 0 0 0 0 0 0 0 0 0 0 0 0 127 0" result="hardAlpha"/>
<feOffset/>
<feGaussianBlur stdDeviation="5"/>
<feComposite in2="hardAlpha" operator="out"/>
<feColorMatrix type="matrix" values="0 0 0 0 0.00392157 0 0 0 0 0.760784 0 0 0 0 0.170431 0 0 0 0.5 0"/>
<feBlend mode="normal" in2="BackgroundImageFix" result="effect1_dropShadow_126_88"/>
<feBlend mode="normal" in="SourceGraphic" in2="effect1_dropShadow_126_88" result="shape"/>
</filter>
<filter id="filter1_f_126_88" x="0" y="0" width="200" height="200" filterUnits="userSpaceOnUse" color-interpolation-filters="sRGB">
<feFlood flood-opacity="0" result="BackgroundImageFix"/>
<feBlend mode="normal" in="SourceGraphic" in2="BackgroundImageFix" result="shape"/>
<feGaussianBlur stdDeviation="40" result="effect1_foregroundBlur_126_88"/>
</filter>
<linearGradient id="paint0_linear_126_88" x1="60" y1="81.558" x2="123.474" y2="85.7424" gradientUnits="userSpaceOnUse">
<stop stop-color="#00AA30"/>
<stop offset="1" stop-color="#00D03A"/>
</linearGradient>
<linearGradient id="paint1_linear_126_88" x1="77.7643" y1="96.2047" x2="117.141" y2="98.6658" gradientUnits="userSpaceOnUse">
<stop stop-color="#00AA30"/>
<stop offset="1" stop-color="#00D03A"/>
</linearGradient>
<linearGradient id="paint2_linear_126_88" x1="94.1998" y1="106.693" x2="105.333" y2="107.142" gradientUnits="userSpaceOnUse">
<stop stop-color="#00AA30"/>
<stop offset="1" stop-color="#00D03A"/>
</linearGradient>
</defs>
</svg>
