<svg width="200" height="200" viewBox="0 0 200 200" fill="none" xmlns="http://www.w3.org/2000/svg">
<g filter="url(#filter0_d_22_52)">
<path d="M93.9752 84.7312C93.8752 84.661 93.7617 84.6124 93.6419 84.5885C93.5221 84.5647 93.3986 84.5661 93.2793 84.5928C93.1601 84.6194 93.0477 84.6706 92.9494 84.7432C92.8512 84.8157 92.7691 84.908 92.7085 85.0141C92.7026 85.0246 92.6953 85.0342 92.6888 85.0439C92.4069 85.4467 91.8498 85.5446 91.447 85.2631C91.0491 84.9848 90.5013 85.0809 90.2228 85.4787L88.942 87.3084C88.8498 87.4401 88.7954 87.5945 88.7849 87.7549C88.7743 87.9153 88.808 88.0755 88.8821 88.2182C88.9562 88.3608 89.0681 88.4803 89.2054 88.5639C89.3428 88.6474 89.5004 88.6916 89.6612 88.6918C89.8026 88.6919 89.942 88.6579 90.0674 88.5926C90.1929 88.5273 90.3007 88.4327 90.3817 88.3168L91.2446 87.0841C92.0548 87.3098 92.9351 87.1359 93.5989 86.613L94.8952 87.5208C94.9896 87.5897 95.0968 87.6391 95.2105 87.666C95.3242 87.6929 95.4422 87.697 95.5574 87.6778C95.6727 87.6586 95.783 87.6166 95.8818 87.5543C95.9807 87.492 96.0661 87.4106 96.1331 87.3149C96.2002 87.2192 96.2474 87.1111 96.2722 86.9969C96.2969 86.8827 96.2986 86.7647 96.2772 86.6498C96.2558 86.5349 96.2117 86.4255 96.1475 86.3278C96.0833 86.2302 96.0003 86.1464 95.9033 86.0812L93.9752 84.7312ZM103.695 95.8023L102.832 97.0345C102.698 97.2254 102.646 97.4616 102.686 97.6912C102.727 97.9207 102.857 98.1248 103.048 98.2586C103.195 98.3621 103.371 98.4176 103.551 98.4174C103.693 98.4176 103.832 98.3837 103.957 98.3184C104.083 98.2531 104.191 98.1584 104.272 98.0424L105.553 96.2133C105.687 96.0224 105.739 95.7862 105.699 95.5566C105.658 95.3271 105.528 95.123 105.337 94.9892C104.934 94.7073 104.836 94.1501 105.119 93.7469C105.125 93.7373 105.132 93.7277 105.14 93.7189C105.218 93.6256 105.277 93.5168 105.311 93.3996C105.346 93.2825 105.355 93.1594 105.34 93.0383C105.324 92.9171 105.283 92.8005 105.22 92.696C105.157 92.5915 105.073 92.5013 104.973 92.4312L103.044 91.0812C102.853 90.9476 102.617 90.8953 102.388 90.9358C102.158 90.9763 101.954 91.1064 101.82 91.2973C101.542 91.6947 101.639 92.243 102.036 92.5215L103.332 93.4287C103.068 94.2316 103.205 95.1179 103.695 95.8023ZM99.0308 115.548C99.4482 115.548 99.8359 115.715 100.122 116.019C100.283 116.188 100.503 116.287 100.736 116.294C100.969 116.3 101.195 116.214 101.365 116.054C101.449 115.975 101.516 115.88 101.564 115.775C101.611 115.669 101.637 115.556 101.64 115.44C101.643 115.325 101.624 115.21 101.583 115.102C101.542 114.994 101.48 114.896 101.401 114.812C101.095 114.49 100.728 114.233 100.321 114.057C99.9133 113.882 99.4744 113.791 99.0308 113.79C97.2336 113.79 95.7718 115.252 95.7718 117.049C95.7718 118.846 97.2336 120.308 99.0308 120.308C99.9015 120.308 100.72 119.969 101.335 119.354C101.417 119.272 101.482 119.175 101.526 119.069C101.57 118.962 101.593 118.848 101.593 118.732C101.593 118.617 101.57 118.503 101.526 118.396C101.482 118.289 101.417 118.192 101.335 118.111C101.254 118.029 101.157 117.964 101.05 117.92C100.943 117.876 100.829 117.853 100.714 117.853C100.598 117.853 100.484 117.876 100.377 117.92C100.271 117.964 100.174 118.029 100.092 118.111C99.9532 118.251 99.7877 118.361 99.6055 118.437C99.4233 118.512 99.228 118.551 99.0308 118.55C98.2031 118.55 97.5296 117.877 97.5296 117.049C97.5296 116.221 98.2031 115.548 99.0308 115.548Z" fill="url(#paint0_linear_22_52)"/>
<path d="M106.856 110.858V103.819C106.856 101.429 104.912 99.484 102.522 99.484H97.8574C98.1302 97.1274 97.3608 95.0547 95.7375 93.9181C94.3624 92.9554 92.5807 92.7828 90.7204 93.4319C88.9622 94.0457 87.3266 95.3357 86.1162 97.0642C85.5802 97.8292 85.1536 98.6404 84.8441 99.484H79.1221L91.4214 81.9192L108.488 93.8691L105.888 97.5829C105.819 97.6773 105.77 97.7845 105.743 97.8982C105.716 98.0119 105.712 98.1298 105.731 98.2451C105.75 98.3604 105.792 98.4707 105.855 98.5695C105.917 98.6684 105.998 98.7538 106.094 98.8208C106.19 98.8879 106.298 98.9351 106.412 98.9599C106.526 98.9846 106.644 98.9863 106.759 98.9649C106.874 98.9435 106.983 98.8994 107.081 98.8352C107.179 98.771 107.263 98.688 107.328 98.591L110.162 94.5429C110.589 93.9345 110.441 93.0918 109.832 92.6642L92.0953 80.2451C91.9505 80.1429 91.7869 80.0705 91.6139 80.032C91.4409 79.9935 91.262 79.9897 91.0875 80.0208C90.9129 80.0512 90.7461 80.1158 90.5966 80.2109C90.4471 80.306 90.3179 80.4298 90.2164 80.5751L86.1483 86.3855V82.8819C86.1483 82.1379 85.5431 81.5328 84.7992 81.5328H63.7185C62.9746 81.5328 62.3694 82.1379 62.3694 82.8819V87.6933C62.3694 87.9264 62.462 88.15 62.6268 88.3148C62.7917 88.4796 63.0152 88.5722 63.2483 88.5722C63.7339 88.5722 64.1272 88.1791 64.1272 87.6933V83.2911H66.6737V99.4836H64.3348C64.2656 99.4836 64.1965 99.4853 64.1273 99.4886V91.209C64.1273 90.9759 64.0347 90.7523 63.8699 90.5875C63.7051 90.4227 63.4815 90.3301 63.2484 90.3301C63.0153 90.3301 62.7918 90.4227 62.627 90.5875C62.4621 90.7523 62.3695 90.9759 62.3695 91.209V99.9555C60.9645 100.673 60 102.135 60 103.819V130.28C60 132.67 61.9446 134.614 64.3345 134.614H70.897C71.3828 134.614 71.7759 134.221 71.7759 133.735C71.7759 133.502 71.6833 133.279 71.5185 133.114C71.3537 132.949 71.1301 132.856 70.897 132.856H64.3345C62.9136 132.856 61.7578 131.7 61.7578 130.28V103.819C61.7578 102.692 62.4838 101.733 63.4918 101.383C63.5142 101.377 63.5367 101.37 63.5582 101.361C63.8095 101.282 64.0715 101.241 64.3351 101.241H102.522C103.943 101.241 105.099 102.398 105.099 103.819V110.736H98.8064C95.3256 110.736 92.4935 113.568 92.4935 117.049C92.4935 120.53 95.3256 123.362 98.8064 123.362H105.099V130.28C105.099 131.701 103.943 132.856 102.522 132.856H95.8058C95.5727 132.856 95.3492 132.949 95.1843 133.114C95.0195 133.279 94.9269 133.502 94.9269 133.735C94.9269 134.221 95.3201 134.614 95.8058 134.614H102.522C104.912 134.614 106.857 132.67 106.857 130.28V123.24C108.845 122.768 110.329 120.977 110.329 118.847V115.252C110.328 113.121 108.845 111.33 106.856 110.858ZM87.5561 98.0732C89.5605 95.2103 92.7786 93.9928 94.7296 95.3582C95.8534 96.1451 96.3483 97.6891 96.0851 99.4836H86.7439C86.9714 98.9898 87.2432 98.5178 87.5561 98.0732ZM84.3906 88.8959L76.9766 99.484H72.6457V83.2906H84.3906V88.8959ZM68.4315 83.2906H70.8879V99.4836H68.4316L68.4315 83.2906ZM108.571 118.846C108.571 120.367 107.334 121.604 105.813 121.604H98.8064C96.2947 121.604 94.2513 119.561 94.2513 117.049C94.2513 114.537 96.2947 112.494 98.8064 112.494H105.813C107.334 112.494 108.57 113.731 108.57 115.252L108.571 118.846Z" fill="url(#paint1_linear_22_52)"/>
<path d="M83.4279 118.763C77.5731 118.763 72.8095 123.527 72.8095 129.382C72.8095 135.237 77.5731 140 83.4279 140C89.2831 140 94.0466 135.237 94.0466 129.382C94.0466 123.527 89.2831 118.763 83.4279 118.763ZM83.4279 138.242C78.5422 138.242 74.5673 134.268 74.5673 129.382C74.5673 124.496 78.5422 120.521 83.4279 120.521C88.314 120.521 92.2888 124.496 92.2888 129.382C92.2888 134.268 88.314 138.242 83.4279 138.242Z" fill="url(#paint2_linear_22_52)"/>
<path d="M84.1776 128.503H82.6784C82.4661 128.503 82.2625 128.418 82.1123 128.268C81.9622 128.118 81.8777 127.914 81.8775 127.702C81.8777 127.49 81.9621 127.286 82.1123 127.136C82.2625 126.986 82.4661 126.901 82.6784 126.901H85.5472C86.0326 126.901 86.4261 126.507 86.4261 126.022C86.4261 125.537 86.0326 125.143 85.5472 125.143H84.4684V124.4C84.4684 123.915 84.0746 123.521 83.5895 123.521C83.1043 123.521 82.7106 123.915 82.7106 124.4V125.143H82.6784C81.2676 125.143 80.1197 126.291 80.1197 127.702C80.1197 129.113 81.2676 130.261 82.6784 130.261H84.1776C84.3899 130.261 84.5935 130.345 84.7436 130.495C84.8937 130.646 84.9781 130.849 84.9783 131.061C84.9783 131.503 84.6194 131.863 84.1776 131.863H81.3089C80.8231 131.863 80.43 132.256 80.43 132.741C80.43 133.227 80.8231 133.62 81.3089 133.62H82.7104V134.363C82.7104 134.596 82.803 134.82 82.9679 134.985C83.1327 135.15 83.3562 135.242 83.5893 135.242C83.8224 135.242 84.046 135.15 84.2108 134.985C84.3757 134.82 84.4683 134.596 84.4683 134.363V133.604C85.7428 133.459 86.7365 132.374 86.7365 131.061C86.7361 129.65 85.5884 128.503 84.1776 128.503Z" fill="url(#paint3_linear_22_52)"/>
</g>
<g filter="url(#filter1_f_22_52)">
<circle cx="100" cy="100" r="20" fill="#AEC4B4"/>
</g>
<defs>
<filter id="filter0_d_22_52" x="50" y="70" width="70.4063" height="80.0001" filterUnits="userSpaceOnUse" color-interpolation-filters="sRGB">
<feFlood flood-opacity="0" result="BackgroundImageFix"/>
<feColorMatrix in="SourceAlpha" type="matrix" values="0 0 0 0 0 0 0 0 0 0 0 0 0 0 0 0 0 0 127 0" result="hardAlpha"/>
<feOffset/>
<feGaussianBlur stdDeviation="5"/>
<feComposite in2="hardAlpha" operator="out"/>
<feColorMatrix type="matrix" values="0 0 0 0 0.00392157 0 0 0 0 0.760784 0 0 0 0 0.170431 0 0 0 0.5 0"/>
<feBlend mode="normal" in2="BackgroundImageFix" result="effect1_dropShadow_22_52"/>
<feBlend mode="normal" in="SourceGraphic" in2="effect1_dropShadow_22_52" result="shape"/>
</filter>
<filter id="filter1_f_22_52" x="0" y="0" width="200" height="200" filterUnits="userSpaceOnUse" color-interpolation-filters="sRGB">
<feFlood flood-opacity="0" result="BackgroundImageFix"/>
<feBlend mode="normal" in="SourceGraphic" in2="BackgroundImageFix" result="shape"/>
<feGaussianBlur stdDeviation="40" result="effect1_foregroundBlur_22_52"/>
</filter>
<linearGradient id="paint0_linear_22_52" x1="88.783" y1="84.5717" x2="106.754" y2="85.1037" gradientUnits="userSpaceOnUse">
<stop stop-color="#00AA30"/>
<stop offset="1" stop-color="#00D03A"/>
</linearGradient>
<linearGradient id="paint1_linear_22_52" x1="60" y1="80" x2="113.379" y2="83.0791" gradientUnits="userSpaceOnUse">
<stop stop-color="#00AA30"/>
<stop offset="1" stop-color="#00D03A"/>
</linearGradient>
<linearGradient id="paint2_linear_22_52" x1="72.8095" y1="118.763" x2="95.2861" y2="120.168" gradientUnits="userSpaceOnUse">
<stop stop-color="#00AA30"/>
<stop offset="1" stop-color="#00D03A"/>
</linearGradient>
<linearGradient id="paint3_linear_22_52" x1="80.1197" y1="123.521" x2="87.1413" y2="123.769" gradientUnits="userSpaceOnUse">
<stop stop-color="#00AA30"/>
<stop offset="1" stop-color="#00D03A"/>
</linearGradient>
</defs>
</svg>
